<svg class="bumptop tile-image fill" width="288px" height="120px" viewBox="0 0 288 120" version="1.1" xmlns="http://www.w3.org/2000/svg" xmlns:xlink="http://www.w3.org/1999/xlink" xmlns:sketch="http://www.bohemiancoding.com/sketch/ns">
    <g stroke="none" stroke-width="1" fill="none" fill-rule="evenodd" sketch:type="MSPage">
        <g sketch:type="MSArtboardGroup">
            <g sketch:type="MSLayerGroup" transform="translate(102.000000, 25.000000)">
                <path d="M0,24.0975255 L1.3218232,35.2943555 L27.3977901,69.2499596 L27.5179558,58.2965389 L0,24.0975255 Z M27.5179558,58.2965389 L86.8589254,31.4907193 L85.9209116,41.202874 L27.3977901,69.2499596 L27.5179558,58.2965389 Z" id="Fill-7" fill="#222222" sketch:type="MSShapeGroup"></path>
                <path d="M58.461837,0.1119683 L86.8589254,31.490841 L27.5178356,58.2965389 L0,24.0975255 L58.461837,0.1119683 L58.461837,0.1119683 Z M57.7326713,1.83737546 L2.49992818,24.4981773 L28.292424,56.552876 L84.3377279,31.2358697 L57.7326713,1.83737546 L57.7326713,1.83737546 Z" id="Fill-10" fill="#222222" sketch:type="MSShapeGroup"></path>
                <path d="M22.1980981,37.5107193 C21.1464075,37.9792823 19.7413094,37.6652842 19.0920539,36.8363537 C18.4342666,35.9964698 18.7573923,34.9285112 19.8089627,34.4599482 C20.8461133,33.998079 22.2401561,34.3010019 22.8979434,35.1410076 C23.5471989,35.9699381 23.2350083,37.0489718 22.1980981,37.5107193 M13.5790898,31.7888958 C12.9567514,32.066139 12.7631644,32.7114172 13.1514199,33.2071203 L15.0932983,35.6868531 C15.4922486,36.1964305 15.8469779,36.6428433 16.7274323,37.7675162 C18.3785097,39.8758062 21.3355483,40.3049369 23.625547,39.2846866 C25.7471934,38.3398933 26.6967431,36.0333463 25.1961133,34.1172279 C23.6858702,32.1886956 20.6313771,31.6807003 18.7779406,32.5063448 C17.4474655,33.0990466 17.1826202,33.770613 16.9513011,33.8736968 C16.8527652,33.9176322 16.7602376,33.8586055 16.5942887,33.6465959 L15.4487486,32.1837057 C15.0606133,31.6881243 14.2170497,31.5048371 13.5790898,31.7888958 Z M29.7403011,27.6233099 C29.1041436,27.9066384 28.9085138,28.5538638 29.2978508,29.0510274 L31.6610304,32.0686948 C32.0847348,32.6097938 31.7858826,33.2733277 31.117761,33.5710173 C30.4522831,33.8674899 29.5384227,33.7440814 29.1147182,33.2031041 L26.7514185,30.1851933 C26.3622017,29.6880297 25.5025359,29.5109494 24.8800773,29.7881926 C24.257739,30.0654359 24.0648729,30.7114443 24.4540898,31.2086079 L26.7504572,34.1408386 C27.9744655,35.70377 30.5985249,36.2752952 32.5536215,35.4044982 C34.5105207,34.5327276 35.1162762,32.5225315 33.8923881,30.9596001 L31.5961409,28.027126 C31.2068039,27.5300841 30.360837,27.3469186 29.7403011,27.6233099 Z M40.2654986,22.8400728 C40.256366,22.8442107 40.2469931,22.8484704 40.2377403,22.8526084 C39.2758135,23.2811305 38.7130773,23.9468551 38.4819986,24.5931069 C37.602866,24.4414629 36.5628315,24.4895362 35.598982,24.9189103 C35.5897293,24.9230483 35.5803564,24.9270645 35.5709834,24.9312025 C33.6890677,25.7695043 33.1257307,27.7041218 34.3078011,29.2133814 L36.6706202,32.230562 C37.0695704,32.7401395 37.9096492,32.922088 38.5329489,32.6444796 C39.1534848,32.3679666 39.3659378,31.71709 38.9668674,31.2077559 L36.6041685,28.1905754 C36.2058191,27.6817281 36.3972431,27.0354763 37.0342417,26.751661 C37.6723218,26.4676023 38.5305456,26.6460213 38.9291354,27.1549903 L41.2918343,30.1720492 C41.6907845,30.6817483 42.5326657,30.8628449 43.1696644,30.5790296 C43.7939254,30.3009344 43.9873923,29.6585771 43.5880815,29.1492431 L41.2255028,26.1320625 C40.8271533,25.6232153 41.0349199,24.9696612 41.673,24.685359 C42.3108398,24.4013003 43.169424,24.5798411 43.5677735,25.0886883 L45.9304724,28.1058689 C46.3294227,28.6153247 47.1715442,28.7964212 47.7936423,28.519178 C48.4151395,28.2425433 48.6249489,27.5928837 48.2259986,27.0831845 L45.8632997,24.0661257 C44.6811091,22.5566226 42.1477749,22.0015276 40.2654986,22.8400728 Z M53.0505331,23.7282735 C51.9969199,24.1975667 50.6019157,23.8930616 49.9459309,23.0551249 C49.2948729,22.2240037 49.6079047,21.1469174 50.661518,20.6775024 C51.6977072,20.2159983 53.1023246,20.5280491 53.7533826,21.359292 C54.4093674,22.197107 54.0867224,23.2667694 53.0505331,23.7282735 Z M49.2882638,18.8783422 C46.9973039,19.8988359 46.0703453,22.054104 47.7261091,24.1682359 C48.6019972,25.2867018 48.9484351,25.7389564 49.3476257,26.2484122 L51.2895041,28.7282666 C51.6786008,29.2253085 52.5214434,29.4060399 53.1422196,29.1296486 C53.7792182,28.845955 53.9761699,28.2018939 53.5867127,27.704852 L52.441413,26.2419618 C52.2754641,26.0303174 52.2515511,25.9408645 52.3497265,25.8971725 C52.5808052,25.794332 53.4874558,25.943542 54.8186519,25.3507185 C56.6710069,24.5254391 57.5578301,22.2619756 56.0499903,20.3362425 C54.5469572,18.4173249 51.4099102,17.9331837 49.2882638,18.8783422" id="Fill-11" fill="#222222" sketch:type="MSShapeGroup"></path>
                <path d="M23.2139793,41.3209275 C22.5906796,41.5985359 22.3805097,42.2492908 22.7704475,42.7473063 L23.5868536,43.7897069 L22.9689613,44.0648811 C22.4051436,44.3162013 22.232826,44.8859009 22.5843108,45.3347477 C22.9278646,45.7733713 23.6737334,45.9360905 24.2375511,45.684892 L24.8554434,45.4095961 L28.0516119,49.4912057 C28.4494807,49.999201 29.3060221,50.1739689 29.9293218,49.8962389 C30.5498577,49.6198476 30.7450069,48.9768818 30.3471381,48.4686431 L27.1509696,44.3872768 L27.7614116,44.1152669 C28.3097279,43.8710056 28.4808439,43.2997238 28.1374102,42.8612219 C27.7859254,42.4121317 27.041018,42.2509947 26.4928218,42.4953776 L25.8822597,42.7672659 L25.0659738,41.7247437 C24.6760359,41.2268498 23.8345152,41.0445362 23.2139793,41.3209275 Z M35.8960318,44.9427369 C34.7995193,45.4312595 33.3059793,45.1087421 32.6212749,44.2341723 C31.9262362,43.3468235 32.279884,42.2138747 33.3763964,41.7254739 C34.4857666,41.2312312 35.9580373,41.550706 36.6529558,42.4382982 C37.3379006,43.3126245 37.0052818,44.4488594 35.8960318,44.9427369 Z M31.9858384,39.9498027 C29.6582279,40.9867265 28.8420622,43.2346118 30.3998909,45.2236313 C31.9443812,47.1962207 34.9578978,47.7541149 37.2855083,46.7171911 C39.6120373,45.6808758 40.4199116,43.42082 38.8753011,41.4483523 C37.3177127,39.4592111 34.3124876,38.9133657 31.9858384,39.9498027 Z M45.2341119,40.6689556 C44.1824213,41.1373969 42.7870566,40.8360561 42.1310718,39.9979977 C41.4807348,39.1678502 41.7929254,38.0860173 42.8444959,37.6174543 C43.8833287,37.1547331 45.289268,37.4714087 45.939605,38.301678 C46.5955898,39.1396147 46.2730649,40.205991 45.2341119,40.6689556 Z M41.475087,35.8214584 C39.1868909,36.8407351 38.25825,38.9988024 39.910529,41.1085529 C40.7893011,42.2307917 41.1360994,42.6798819 41.5356506,43.1901896 L43.4776492,45.669679 C43.8650635,46.1647736 44.7093481,46.3489127 45.3307251,46.0719129 C45.9677238,45.788341 46.1597486,45.1426977 45.7722141,44.6476031 L44.626674,43.1847129 C44.4604848,42.9727034 44.436692,42.883007 44.5358287,42.8390716 C44.7682293,42.7357444 45.6753605,42.8823985 47.0058356,42.2896967 C48.8575898,41.4649042 49.7460953,39.2054569 48.2369337,37.2783851 C46.7347417,35.360076 43.5996174,34.8752046 41.475087,35.8214584" id="Fill-15" fill="#222222" sketch:type="MSShapeGroup"></path>
            </g>
        </g>
    </g>
</svg>
