<svg class="cast tile-image fill" width="288px" height="120px" viewBox="0 0 288 120" version="1.1" xmlns="http://www.w3.org/2000/svg" xmlns:xlink="http://www.w3.org/1999/xlink" xmlns:sketch="http://www.bohemiancoding.com/sketch/ns">
  <g>
    <path d="M85.4916667,60.05 C85.4916667,70.05 93.5416667,78 103.541667,78 C107.991667,78 112.291667,76.45 115.691667,73.15 C116.041667,72.8 116.141667,72.15 115.741667,71.8 L113.441667,69.55 C113.141667,69.3 112.691667,69.25 112.241667,69.6 C109.841667,71.45 107.291667,72.9 103.641667,72.9 C96.4916667,72.9 91.0416667,66.95 91.0416667,59.95 C91.0416667,52.95 96.4416667,46.95 103.591667,46.95 C106.691667,46.95 109.891667,48.25 112.241667,50.3 C112.691667,50.75 113.141667,50.75 113.491667,50.3 L115.691667,48.05 C116.091667,47.65 116.091667,47.05 115.641667,46.65 C112.241667,43.7 108.591667,42 103.541667,42 C93.5416667,42 85.4916667,50.05 85.4916667,60.05 L85.4916667,60.05 Z M118.991667,77.5 L122.141667,77.5 C122.741667,77.5 123.141667,77.1 123.291667,76.75 C124.291667,74.45 125.341667,72.2 126.341667,69.9 L142.691667,69.9 L145.791667,76.75 C145.991667,77.2 146.341667,77.5 146.941667,77.5 L150.091667,77.5 C150.841667,77.5 151.241667,76.85 150.941667,76.2 L135.691667,42.55 C135.541667,42.25 135.091667,42 134.841667,42 L134.341667,42 C134.091667,42 133.641667,42.25 133.491667,42.55 L118.141667,76.2 C117.841667,76.85 118.241667,77.5 118.991667,77.5 L118.991667,77.5 Z M128.291667,65.6 L134.391667,51.9 L134.641667,51.9 L140.791667,65.6 L128.291667,65.6 Z M153.991667,74.05 C154.791667,74.8 158.641667,78 164.741667,78 C171.241667,78 175.891667,73.75 175.891667,68.55 C175.891667,62.45 170.941667,59.7 165.141667,57.35 C160.991667,55.65 158.791667,53.9 158.791667,51.05 C158.791667,49.2 160.241667,46.55 164.441667,46.55 C167.341667,46.55 170.841667,48.85 171.191667,49.05 C171.891667,49.5 172.541667,49.2 172.941667,48.55 C173.341667,47.95 173.791667,47.25 174.191667,46.65 C174.691667,45.9 174.291667,45.2 173.891667,44.95 C173.391667,44.6 169.641667,42 164.641667,42 C156.691667,42 153.691667,47.35 153.691667,51.25 C153.691667,57.05 157.691667,59.7 162.791667,61.85 C167.741667,63.9 170.341667,65.8 170.341667,68.8 C170.341667,71.35 168.141667,73.45 164.691667,73.45 C160.841667,73.45 156.991667,70.25 156.691667,70 C156.141667,69.55 155.441667,69.75 154.991667,70.4 C154.541667,71.05 154.141667,71.8 153.691667,72.45 C153.191667,73.3 153.541667,73.65 153.991667,74.05 L153.991667,74.05 Z M187.591667,76.55 C187.591667,77.05 188.041667,77.5 188.541667,77.5 L191.841667,77.5 C192.341667,77.5 192.791667,77.05 192.791667,76.55 L192.791667,47.2 L200.941667,47.2 C201.491667,47.2 201.891667,46.75 201.891667,46.25 L201.891667,43.45 C201.891667,42.95 201.491667,42.5 200.941667,42.5 L179.441667,42.5 C178.891667,42.5 178.491667,42.95 178.491667,43.45 L178.491667,46.25 C178.491667,46.75 178.891667,47.2 179.441667,47.2 L187.591667,47.2 L187.591667,76.55 Z" id="CAST" sketch:type="MSShapeGroup"></path>
  </g>
</svg>
