<svg class="fivehundredpx tile-image fill" width="288px" height="120px" viewBox="0 0 288 120" version="1.1" xmlns="http://www.w3.org/2000/svg" xmlns:xlink="http://www.w3.org/1999/xlink" xmlns:sketch="http://www.bohemiancoding.com/sketch/ns">
    <defs>
        <path d="M187.816218,77.0382359 C186.510758,78.4950985 184.894052,79.6386518 182.967162,80.466329 C181.038857,81.2952041 178.88826,81.7089572 176.516608,81.7089572 C174.677256,81.7089572 172.957627,81.4384263 171.355953,80.8947979 C169.754456,80.3525384 168.255882,79.6386518 166.862706,78.7521114 C165.468293,77.8669399 164.149038,76.8387173 162.903351,75.6669302 C161.657663,74.4965121 160.470511,73.2817755 159.34437,72.0244316 C158.098682,73.2817755 156.882351,74.4965121 155.696436,75.6669302 C154.509107,76.8387173 153.249626,77.8669399 151.914986,78.7521114 C150.580346,79.6386518 149.126336,80.3525384 147.555256,80.8947979 C145.982761,81.4384263 144.218744,81.7089572 142.261261,81.7089572 C139.828421,81.7089572 137.663853,81.2952041 135.766142,80.466329 C133.867194,79.6386518 132.23634,78.5245301 130.872521,77.1239639 C129.617284,75.8371884 128.640222,74.3200938 127.937445,72.5737068 C127.916931,72.6190519 127.897124,72.6649104 127.875903,72.7100844 C126.978952,74.6229652 125.771816,76.2793464 124.256442,77.6775169 C122.740006,79.0765431 120.978288,80.1562709 118.971288,80.9172138 C116.963404,81.6778145 114.828369,82.0373245 112.565122,81.9969416 C110.387114,81.9969416 108.305133,81.719224 106.319177,81.1639598 C104.333221,80.6085246 102.571504,79.7553513 101.034024,78.6030713 C99.4965438,77.451989 98.2683638,76.0219913 97.3505446,74.3144471 C96.4316643,72.6079295 95.9511797,70.6226676 95.9090909,68.3598592 L105.005935,68.3598592 C105.219032,70.3343409 105.987772,71.9079031 107.312155,73.0803746 C108.6353,74.252675 110.32292,74.8389107 112.37307,74.8389107 C113.568003,74.8389107 114.647104,74.6027737 115.608073,74.1294731 C116.569042,73.6568569 117.379871,73.0398206 118.042505,72.2780222 C118.704077,71.5174215 119.216571,70.6332767 119.579985,69.6247322 C119.942161,68.6172143 120.124487,67.5787249 120.124487,66.5084083 C120.124487,65.3977089 119.953302,64.3487815 119.611993,63.3614551 C119.269624,62.3741287 118.757131,61.5103465 118.074514,60.7697661 C117.390835,60.0293569 116.578946,59.4537302 115.640082,59.0420304 C114.700157,58.6313574 113.611153,58.4249942 112.37307,58.4249942 C110.749467,58.4249942 109.426145,58.7027119 108.401159,59.257976 C107.376172,59.8134113 106.415203,60.6879737 105.518428,61.8806366 L97.3185358,61.8806366 L101.738746,38 L126.786722,38 L126.786722,45.2196319 L108.273124,45.2196319 L106.479221,55.0311239 L106.607432,55.1544969 C107.845692,53.961834 109.169899,53.1084896 110.579344,52.5937794 C111.988612,52.0797537 113.590109,51.8223986 115.383835,51.8223986 C117.603932,51.8223986 119.56902,52.2137358 121.277508,52.994699 C122.985112,53.7766889 124.426565,54.8257873 125.601692,56.1418233 C126.479191,57.1260696 127.201775,58.2419025 127.769443,59.4898352 C128.4487,57.6400954 129.42364,56.033166 130.694616,54.6693894 C131.998662,53.270021 133.60016,52.1558993 135.499285,51.3270242 C137.396996,50.499347 139.532207,50.084225 141.905451,50.084225 C143.862935,50.084225 145.656307,50.3708405 147.288399,50.9413338 C148.919075,51.513196 150.431797,52.26969 151.826033,53.2125268 C153.219032,54.1551925 154.524493,55.2412516 155.740824,56.4691639 C156.955918,57.6986163 158.157041,58.9973698 159.34437,60.3688466 C160.470511,59.0550351 161.642455,57.7694574 162.858786,56.5121135 C164.07388,55.2559673 165.379341,54.1551925 166.773754,53.2125268 C168.166752,52.26969 169.679297,51.513196 171.311565,50.9413338 C172.942242,50.3708405 174.706435,50.084225 176.605384,50.084225 C178.977213,50.084225 181.112601,50.4846312 183.01155,51.2840747 C184.90926,52.0848871 186.510758,53.184293 187.816218,54.5836614 C189.120264,55.9843986 190.129512,57.6262352 190.841308,59.5117377 C191.553104,61.3970692 191.909091,63.4540277 191.909091,65.6822711 C191.909091,67.9106856 191.553104,69.9969046 190.841308,71.9387036 C190.129512,73.8817004 189.120264,75.5812022 187.816218,77.0382359 Z M181.609058,61.152601 C180.355536,59.8102588 178.651461,59.137881 176.497008,59.137881 C175.330853,59.137881 174.209856,59.3669947 173.132456,59.8228086 C172.05384,60.2799096 171.035147,60.8578424 170.073772,61.5554806 C169.11257,62.2542451 168.195139,63.0197808 167.32113,63.8522486 C166.447295,64.6856817 165.660825,65.4512174 164.961722,66.1488556 C165.718143,66.9546149 166.534661,67.7479853 167.408496,68.5262317 C168.282505,69.3054434 169.213658,70.0043688 170.204908,70.621238 C171.194768,71.2395553 172.228399,71.7370409 173.307188,72.1122467 C174.384415,72.4887396 175.53546,72.6763425 176.758933,72.6763425 C178.913734,72.6763425 180.574038,72.0316386 181.740194,70.7422306 C182.904787,69.4528227 183.488038,67.8688171 183.488038,65.9876394 C183.488038,64.1077489 182.861017,62.4960695 181.609058,61.152601 L181.609058,61.152601 Z M150.725475,63.8522486 C149.792585,63.0197808 148.816446,62.2542451 147.797754,61.5554806 C146.777845,60.8578424 145.714166,60.2799096 144.608107,59.8228086 C143.500832,59.3669947 142.393384,59.137881 141.287498,59.137881 C139.247507,59.137881 137.630799,59.8506433 136.437374,61.2732718 C135.242559,62.6975093 134.645933,64.2953518 134.645933,66.0682475 C134.645933,68.0023594 135.25767,69.5874913 136.481143,70.8228387 C137.704617,72.0593124 139.39358,72.6763425 141.549597,72.6763425 C142.655656,72.6763425 143.763104,72.4749027 144.870379,72.0718622 C145.976438,71.6689825 147.025006,71.1589472 148.016256,70.5407908 C149.00629,69.9237607 149.938832,69.2248353 150.812841,68.4456236 C151.686677,67.6673772 152.473146,66.9018415 153.172249,66.1488556 C152.473146,65.4512174 151.656628,64.6856817 150.725475,63.8522486 L150.725475,63.8522486 Z" id="path-1"></path>
    </defs>
    <g stroke="none" stroke-width="1" fill="none" fill-rule="evenodd" sketch:type="MSPage">
        <g>
            <g>
                <use fill="#222222" fill-rule="evenodd" sketch:type="MSShapeGroup" xlink:href="#path-1"></use>
                <use fill="none" xlink:href="#path-1"></use>
            </g>
        </g>
    </g>
</svg>
