<svg class="fivehundredpx tile-image fill" width="288px" height="120px" viewBox="0 0 288 120" version="1.1" xmlns="http://www.w3.org/2000/svg" xmlns:xlink="http://www.w3.org/1999/xlink">
    <!-- Generator: Sketch 42 (36781) - http://www.bohemiancoding.com/sketch -->
    <title>500px</title>
    <desc>Created with Sketch.</desc>
    <defs>
        <polygon id="path-1" points="0 36 144 36 144 0 0 0"></polygon>
    </defs>
    <g id="Portfolio-Tile-Images" stroke="none" stroke-width="1" fill="none" fill-rule="evenodd">
        <g id="500px">
            <g id="Page-1" transform="translate(72.000000, 43.000000)">
                <mask id="mask-2" fill="white">
                    <use xlink:href="#path-1"></use>
                </mask>
                <g id="Clip-2"></g>
                <path d="M137.143545,9.56014799 L143.653209,3.02963861 C143.889369,2.79243345 144.443193,2.23625814 143.322585,1.07912457 C142.842201,0.582756158 142.404153,0.329371353 142.021113,0.326482131 L142.014201,0.326482131 C141.684441,0.326482131 141.462105,0.503880386 141.288441,0.678100497 L134.763225,7.22421168 L128.248953,0.648630428 C127.722489,0.120191652 127.105593,0.24385037 126.311001,1.04012006 C125.502585,1.85545862 125.370393,2.48155312 125.894553,3.01056974 L132.409977,9.58528423 L126.029049,15.9872232 L125.983545,16.0317172 C125.828313,16.1825347 125.593593,16.4104943 125.591001,16.7820483 C125.587833,17.1654481 125.842137,17.6164557 126.347001,18.1232253 C126.772953,18.5514081 127.177017,18.7680998 127.547961,18.7680998 L127.548249,18.7680998 C127.966137,18.7678109 128.233401,18.4991132 128.384025,18.3480068 L134.788857,11.9217984 L141.338841,18.4933347 C141.421497,18.5762554 141.652185,18.7666552 142.022265,18.7666552 L142.035801,18.7666552 C142.450233,18.7614546 142.885977,18.5204934 143.332089,18.0507059 C144.067065,17.2763943 144.189753,16.6312309 143.696409,16.1331289 L137.143545,9.56014799 Z M113.626617,0.178842866 C108.802617,0.5469298 105.024057,4.80362116 105.024057,9.86900587 L105.024057,25.8871438 C105.024057,26.8148731 105.727065,27.004695 106.782585,27.004695 C107.838105,27.004695 108.541401,26.8148731 108.541401,25.8871438 L108.541401,9.83144598 C108.541401,6.67525943 110.830137,3.96545774 113.751609,3.66180047 C115.428921,3.49046958 117.040857,4.01659698 118.295097,5.15148354 C119.526009,6.264412 120.231897,7.86475229 120.232473,9.54223481 C120.232473,10.0224236 119.998617,11.5860707 118.928697,13.0373271 C118.119705,14.134076 116.587257,15.4405823 113.869689,15.4405823 C113.855289,15.4408713 113.835129,15.4405823 113.818425,15.4405823 C113.121177,15.4405823 112.525593,15.4732306 112.411257,17.1304885 C112.334361,18.2457284 112.340697,18.7441192 113.300889,18.8781791 C115.013625,19.1168289 116.760057,18.7808124 118.490649,17.8785082 C121.445817,16.3359524 123.425529,13.4135039 123.658233,10.2506721 C123.860409,7.50359949 122.872569,4.82384572 120.948729,2.89789007 C119.017113,0.965289203 116.349369,-0.0245583904 113.626617,0.178842866 L113.626617,0.178842866 Z M13.7513836,10.7950016 C10.2948076,10.2971886 6.92434357,11.2197173 4.17883954,13.3395398 L4.17883954,3.79961638 L20.2933037,3.79961638 C20.8531757,3.79961638 21.2546477,3.69849359 21.2546477,2.03979101 C21.2546477,0.421537548 20.6046317,0.357107888 20.1757997,0.357107888 L2.33160752,0.357107888 C1.29567151,0.357107888 0.747319504,1.19787161 0.747319504,2.13022367 L0.747319504,17.7869198 C0.747319504,18.6080369 1.26629551,18.886269 2.23167152,19.0778244 C3.07666353,19.2456882 3.56770353,19.1474547 3.93720754,18.7366073 L3.97608754,18.6765114 C5.67615156,16.218361 9.37493559,13.8370639 12.8908396,14.2687137 C17.0875757,14.7838621 20.4666797,18.1422942 20.9289197,22.2542355 C21.2235437,24.8779384 20.4254957,27.3999406 18.6830957,29.3559442 C16.9628717,31.2873893 14.5001836,32.3951172 11.9277676,32.3951172 C8.11666358,32.3951172 4.78565555,29.9375446 3.39864753,26.3705107 C3.19359153,25.8423608 2.84655153,25.451449 1.34520751,25.9992456 C-0.0343125046,26.5022592 -0.114088505,27.0847264 0.0759914965,27.6120095 C1.88175152,32.6005409 6.64440757,35.9520389 11.9271916,35.9520389 C15.5050157,35.9520389 18.9290477,34.4132391 21.3211757,31.7297293 C23.7452717,29.0118378 24.8462958,25.5074999 24.4407918,21.8630348 C23.8051757,16.1576873 19.4030957,11.6065842 13.7513836,10.7950016 L13.7513836,10.7950016 Z M83.4223284,32.161668 C75.6382643,32.161668 69.3057202,25.8088458 69.3057202,18.0001445 C69.3057202,10.1911542 75.6382643,3.83833196 83.4223284,3.83833196 C91.2055285,3.83833196 97.5374965,10.1911542 97.5374965,18.0001445 C97.5374965,25.8088458 91.2055285,32.161668 83.4223284,32.161668 L83.4223284,32.161668 Z M83.4223284,0 C73.5280883,0 65.4787762,8.07479876 65.4787762,18.0001445 C65.4787762,27.9254902 73.5280883,36 83.4223284,36 C93.3157045,36 101.365017,27.9254902 101.365017,18.0001445 C101.365017,8.07479876 93.3157045,0 83.4223284,0 L83.4223284,0 Z M44.591,32.161668 C36.8072239,32.161668 30.4746798,25.8088458 30.4746798,18.0001445 C30.4746798,10.1911542 36.8072239,3.83833196 44.591,3.83833196 C52.374488,3.83833196 58.7064561,10.1911542 58.7064561,18.0001445 C58.7064561,25.8088458 52.374488,32.161668 44.591,32.161668 L44.591,32.161668 Z M44.591,0 C34.6967599,0 26.6474478,8.07479876 26.6474478,18.0001445 C26.6474478,27.9254902 34.6967599,36 44.591,36 C54.4846641,36 62.5336882,27.9254902 62.5336882,18.0001445 C62.5336882,8.07479876 54.4846641,0 44.591,0 L44.591,0 Z" id="Fill-1" fill="#010201" mask="url(#mask-2)"></path>
            </g>
        </g>
    </g>
</svg>