<svg class="leanin tile-image fill" width="288px" height="120px" viewBox="0 0 288 120" version="1.1" xmlns="http://www.w3.org/2000/svg" xmlns:xlink="http://www.w3.org/1999/xlink" xmlns:sketch="http://www.bohemiancoding.com/sketch/ns">
    <g id="Portfolio-Tile-Images" stroke="none" stroke-width="1" fill="none" fill-rule="evenodd" sketch:type="MSPage">
        <g sketch:type="MSArtboardGroup" fill="#222222">
            <g sketch:type="MSLayerGroup" transform="translate(112.000000, 30.000000)">
                <path d="M38.5878434,34.5803997 C38.5878434,35.4712435 37.8605393,36.1936752 36.9630687,36.1936752 L35.340815,36.1936752 C34.4442898,36.1936752 33.7182462,35.4712435 33.7182462,34.5803997 L33.7182462,21.6782347 C33.7182462,20.7877017 34.4442898,20.0655806 35.340815,20.0655806 L36.9630687,20.0655806 C37.8605393,20.0655806 38.5878434,20.7877017 38.5878434,21.6782347 L38.5878434,34.5803997 Z M36.9630687,39.4189834 L32.0944169,39.4189834 C31.1254134,39.4189834 30.4718481,38.7695716 30.4718481,37.8060186 L30.4718481,24.9038536 C30.4718481,24.0136313 29.744544,23.2908888 28.848649,23.2908888 L27.2254499,23.2908888 C26.3282945,23.2908888 25.6009904,24.0136313 25.6009904,24.9038536 L25.6009904,42.6446023 C25.6009904,43.5354461 26.3282945,44.2572564 27.2254499,44.2572564 L36.9630687,44.2572564 C37.8605393,44.2572564 38.5878434,43.5354461 38.5878434,42.6446023 L38.5878434,41.0322589 C38.5878434,40.1417259 37.8605393,39.4189834 36.9630687,39.4189834 Z M38.5878434,13.6143428 C38.5878434,12.723499 37.8605393,12.0016887 36.9630687,12.0016887 L35.340815,12.0016887 C34.4442898,12.0016887 33.7182462,12.723499 33.7182462,13.6143428 L33.7182462,15.2269969 C33.7182462,16.11753 34.4442898,16.839651 35.340815,16.839651 L36.9630687,16.839651 C37.8605393,16.839651 38.5878434,16.11753 38.5878434,15.2269969 L38.5878434,13.6143428 Z" id="Fill-1" sketch:type="MSShapeGroup"></path>
                <path d="M33.6382049,0 L6.932468,0 C3.46863494,0 0.660257913,2.79029552 0.660257913,6.23217788 L0.660257913,50.1675249 C0.660257913,53.6087858 3.46863494,56.3997028 6.932468,56.3997028 L17.7619883,56.3997028 L17.761358,67.8728511 L33.6063775,56.3997028 L57.423381,56.3997028 C60.8903653,56.3997028 63.695276,53.6087858 63.695276,50.1675249 L63.695276,6.23217788 C63.695276,2.79029552 60.8903653,0 57.423381,0 L42.951668,0 M38.8664122,0 L37.7206246,0 M8.76995076,48.0309913 C5.84497819,45.147168 6.19444971,42.8689446 6.19444971,28.0437129 C6.19444971,13.2184813 5.87712075,10.9104284 8.76995076,8.05767746 C11.6630959,5.20461582 21.7851648,5.13563524 32.0209932,5.13563524 C42.2571367,5.13563524 52.3713275,5.19498339 55.2742415,8.05767746 C58.1768403,10.9203715 58.1629749,13.3256808 58.1629749,28.0437129 C58.1629749,42.761745 58.206777,45.1390892 55.2742415,48.0309913 C52.3413909,50.9228933 42.3088169,51.2696606 32.0209932,51.2696606 C21.7334846,51.2696606 11.6952385,50.9148145 8.76995076,48.0309913" id="Fill-13" sketch:type="MSShapeGroup"></path>
            </g>
        </g>
    </g>
</svg>
