<svg class="bumptop tile-image fill" width="288" height="120" viewBox="0 0 288 120" fill="none" xmlns="http://www.w3.org/2000/svg">
<rect width="288" height="120" fill="white"/>
<g clip-path="url(#clip0_1_80)">
<path fill-rule="evenodd" clip-rule="evenodd" d="M159.676 60.2511C159.436 60.8333 159.131 61.381 158.772 61.887C157.194 64.1079 154.553 65.51 151.597 65.3314C148.788 65.1618 146.355 63.5369 145.013 61.2144C146.356 67.4735 148.789 71.8511 151.597 72.308C151.766 72.3356 151.934 72.3456 152.101 72.3456V72.3493H135.706V72.3456C138.457 72.3454 140.889 68.6658 142.376 63.0208C142.529 62.4412 142.669 61.8373 142.802 61.2186C142.669 61.448 142.529 61.6719 142.376 61.887C140.799 64.1079 138.158 65.51 135.201 65.3314C130.984 65.0769 127.609 61.542 127.511 57.2879C127.456 54.9289 128.386 52.7892 129.913 51.2518L129.911 51.2509L143.897 37.1644L157.884 51.2509C159.249 52.6223 160.141 54.4709 160.28 56.5156C160.369 57.845 160.145 59.112 159.676 60.2511ZM172.544 43.654C171.966 38.719 169.166 34.4806 165.194 32.0124C160.568 28.9874 152.761 27 143.908 27C135.055 27 127.248 28.9874 122.621 32.0124C118.673 34.4663 115.882 38.6695 115.281 43.5676C113.876 50.1997 117.805 63.0033 125.742 75.9763C127.705 79.1839 129.768 82.1664 131.861 84.8652C133.973 87.5882 136.114 90.022 138.213 92.1066C138.348 92.2468 138.486 92.3816 138.625 92.512C140.203 93.9906 142 94.8286 143.908 94.8286C145.749 94.8286 147.488 94.0481 149.026 92.6639C149.276 92.4389 149.521 92.1982 149.759 91.942C151.805 89.8944 153.89 87.5168 155.946 84.8652C158.039 82.1664 160.103 79.1839 162.065 75.9763C169.967 63.0594 173.898 50.3104 172.544 43.654Z" fill="#222222"/>
</g>
<defs>
<clipPath id="clip0_1_80">
<rect width="58" height="68" fill="white" transform="translate(115 27)"/>
</clipPath>
</defs>
</svg>
