<svg class="tile-image stroke" width="288" height="120" viewBox="0 0 288 120" fill="none" xmlns="http://www.w3.org/2000/svg">
<path d="M187 36.0421C185.102 36.9354 183.423 38.573 181.817 41.1039C180.211 43.6348 178.312 47.2823 176.049 52.1208L159.769 88H158.82L145.533 55.6938L129.618 88H128.596L110.929 47.9522C109.396 44.3792 107.789 41.625 106.256 39.764C104.723 37.9031 102.971 36.6376 101 36.0421V35H127.647V36.0421C126.625 36.4143 125.895 37.0098 125.457 37.6798C125.019 38.3497 124.727 39.0941 124.727 39.9129C124.727 40.2851 124.8 40.7317 124.873 41.2528C125.019 41.6994 125.165 42.2205 125.384 42.816L136.48 69.3905L144.292 53.684L140.204 43.7837C139.036 40.7317 137.941 38.7963 136.845 37.9775C135.823 37.0843 134.509 36.4888 132.903 36.191V35.1489H160.28V36.191C157.579 36.5632 156.192 38.052 156.192 40.5829C156.192 41.1039 156.338 41.9228 156.63 43.0393C156.922 44.0815 157.36 45.198 157.798 46.1657L166.559 68.1994L168.676 63.6587C170.355 60.0857 171.742 56.8104 172.618 53.7584C173.494 50.7065 174.005 47.8778 174.005 45.198C174.005 42.5927 173.494 40.5829 172.545 39.0941C171.596 37.6798 170.063 36.6376 168.019 36.1166V35.0744H186.854V36.0421H187Z" fill="#32302F"/>
</svg>
